<svg xmlns="http://www.w3.org/2000/svg" xmlns:xlink="http://www.w3.org/1999/xlink" width="500" zoomAndPan="magnify" viewBox="0 0 375 374.999991" height="500" preserveAspectRatio="xMidYMid meet" version="1.0"><defs><g/><clipPath id="986fc6ab66"><path d="M 282.769531 203 L 305 203 L 305 225.753906 L 282.769531 225.753906 Z M 282.769531 203 " clip-rule="nonzero"/></clipPath><clipPath id="ec659e9659"><path d="M 353 142.503906 L 375 142.503906 L 375 165 L 353 165 Z M 353 142.503906 " clip-rule="nonzero"/></clipPath><clipPath id="aff58efb66"><path d="M 282.769531 147 L 354 147 L 354 201 L 282.769531 201 Z M 282.769531 147 " clip-rule="nonzero"/></clipPath><clipPath id="743e8c8052"><path d="M 0.078125 45 L 50 45 L 50 89 L 0.078125 89 Z M 0.078125 45 " clip-rule="nonzero"/></clipPath><clipPath id="7e3b74208f"><rect x="0" width="52" y="0" height="112"/></clipPath><clipPath id="fb9881c134"><rect x="0" width="284" y="0" height="139"/></clipPath></defs><rect x="-37.5" width="450" fill="#ffffff" y="-37.499999" height="449.999989" fill-opacity="1"/><rect x="-37.5" width="450" fill="#ffffff" y="-37.499999" height="449.999989" fill-opacity="1"/><g clip-path="url(#986fc6ab66)"><path fill="#00bf63" d="M 304.289062 225.507812 L 304.289062 203.988281 L 282.769531 214.75 Z M 304.289062 225.507812 " fill-opacity="1" fill-rule="nonzero"/></g><path fill="#000000" d="M 304.289062 220.898438 L 350.402344 220.898438 C 351.207031 220.898438 352.011719 220.859375 352.8125 220.78125 C 353.613281 220.699219 354.410156 220.582031 355.199219 220.425781 C 355.988281 220.269531 356.769531 220.074219 357.539062 219.839844 C 358.3125 219.605469 359.070312 219.335938 359.8125 219.027344 C 360.558594 218.71875 361.285156 218.375 361.996094 217.992188 C 362.707031 217.613281 363.394531 217.199219 364.066406 216.753906 C 364.734375 216.304688 365.382812 215.828125 366.003906 215.316406 C 366.625 214.804688 367.222656 214.265625 367.792969 213.695312 C 368.363281 213.125 368.902344 212.527344 369.414062 211.90625 C 369.921875 211.285156 370.402344 210.636719 370.851562 209.96875 C 371.296875 209.296875 371.710938 208.609375 372.089844 207.898438 C 372.472656 207.1875 372.816406 206.460938 373.125 205.714844 C 373.429688 204.972656 373.703125 204.214844 373.9375 203.445312 C 374.171875 202.671875 374.367188 201.890625 374.523438 201.101562 C 374.679688 200.3125 374.796875 199.515625 374.875 198.714844 C 374.957031 197.914062 374.996094 197.109375 374.996094 196.304688 L 374.996094 167.097656 L 364.234375 167.097656 L 364.234375 193.230469 C 364.234375 194.238281 364.136719 195.238281 363.941406 196.230469 C 363.742188 197.21875 363.453125 198.179688 363.066406 199.113281 C 362.679688 200.042969 362.207031 200.929688 361.644531 201.769531 C 361.085938 202.609375 360.445312 203.386719 359.734375 204.097656 C 359.019531 204.8125 358.242188 205.449219 357.402344 206.011719 C 356.566406 206.570312 355.679688 207.042969 354.746094 207.429688 C 353.8125 207.816406 352.851562 208.109375 351.863281 208.304688 C 350.875 208.503906 349.875 208.601562 348.863281 208.601562 L 304.289062 208.601562 " fill-opacity="1" fill-rule="nonzero"/><g clip-path="url(#ec659e9659)"><path fill="#00bf63" d="M 353.476562 142.503906 L 353.476562 164.023438 L 374.996094 153.265625 Z M 353.476562 142.503906 " fill-opacity="1" fill-rule="nonzero"/></g><g clip-path="url(#aff58efb66)"><path fill="#000000" d="M 353.476562 147.117188 L 307.363281 147.117188 C 306.558594 147.117188 305.753906 147.15625 304.953125 147.234375 C 304.148438 147.3125 303.355469 147.433594 302.5625 147.589844 C 301.773438 147.746094 300.992188 147.941406 300.222656 148.175781 C 299.453125 148.410156 298.695312 148.679688 297.949219 148.988281 C 297.207031 149.296875 296.480469 149.640625 295.769531 150.019531 C 295.058594 150.402344 294.367188 150.8125 293.699219 151.261719 C 293.027344 151.710938 292.382812 152.1875 291.761719 152.699219 C 291.136719 153.210938 290.542969 153.75 289.972656 154.320312 C 289.402344 154.890625 288.863281 155.484375 288.351562 156.109375 C 287.839844 156.730469 287.359375 157.378906 286.914062 158.046875 C 286.464844 158.714844 286.050781 159.40625 285.671875 160.117188 C 285.292969 160.828125 284.949219 161.554688 284.640625 162.300781 C 284.332031 163.042969 284.0625 163.800781 283.828125 164.570312 C 283.59375 165.34375 283.398438 166.121094 283.242188 166.914062 C 283.085938 167.703125 282.964844 168.5 282.886719 169.300781 C 282.808594 170.101562 282.769531 170.90625 282.769531 171.710938 L 282.769531 200.914062 L 293.527344 200.914062 L 293.527344 174.785156 C 293.527344 173.777344 293.625 172.777344 293.824219 171.785156 C 294.019531 170.796875 294.3125 169.835938 294.699219 168.902344 C 295.085938 167.96875 295.558594 167.085938 296.117188 166.246094 C 296.679688 165.40625 297.316406 164.628906 298.03125 163.914062 C 298.746094 163.203125 299.519531 162.566406 300.359375 162.003906 C 301.199219 161.445312 302.085938 160.96875 303.015625 160.582031 C 303.949219 160.199219 304.910156 159.90625 305.902344 159.707031 C 306.890625 159.511719 307.890625 159.414062 308.898438 159.414062 L 353.476562 159.414062 " fill-opacity="1" fill-rule="nonzero"/></g><g transform="matrix(1, 0, 0, 1, 304, 116)"><g clip-path="url(#7e3b74208f)"><g clip-path="url(#743e8c8052)"><g fill="#00bf63" fill-opacity="1"><g transform="translate(0.286791, 87.813611)"><g><path d="M 49.671875 -41.875 L 33.609375 -20.890625 L 48.65625 -2.234375 C 49.113281 -1.640625 49.253906 -1.117188 49.078125 -0.671875 C 48.910156 -0.222656 48.425781 0 47.625 0 L 35.28125 0 C 34.320312 0 33.578125 -0.398438 33.046875 -1.203125 L 25.953125 -11.234375 L 25.15625 -10.03125 C 23.300781 -7.207031 21.296875 -5 19.140625 -3.40625 C 16.992188 -1.8125 14.597656 -0.691406 11.953125 -0.046875 C 9.304688 0.597656 6.3125 0.921875 2.96875 0.921875 L 0.375 0.921875 L 16.984375 -19.40625 L 2.40625 -38.71875 C 1.945312 -39.363281 1.847656 -39.894531 2.109375 -40.3125 C 2.367188 -40.726562 2.875 -40.9375 3.625 -40.9375 L 15.046875 -40.9375 C 15.503906 -40.9375 15.910156 -40.851562 16.265625 -40.6875 C 16.617188 -40.519531 16.953125 -40.203125 17.265625 -39.734375 L 24.75 -28.6875 L 26 -30.546875 C 27.882812 -33.328125 29.878906 -35.546875 31.984375 -37.203125 C 34.085938 -38.859375 36.4375 -40.050781 39.03125 -40.78125 C 41.632812 -41.507812 44.625 -41.875 48 -41.875 Z M 49.671875 -41.875 "/></g></g></g></g></g></g><g transform="matrix(1, 0, 0, 1, 0, 101)"><g clip-path="url(#fb9881c134)"><g fill="#000000" fill-opacity="1"><g transform="translate(-4.863389, 109.588105)"><g><path d="M 72.234375 -53.5 C 76.722656 -53.5 80.441406 -52.628906 83.390625 -50.890625 C 86.335938 -49.160156 88.53125 -46.820312 89.96875 -43.875 C 91.414062 -40.925781 92.140625 -37.617188 92.140625 -33.953125 L 92.140625 -2.34375 C 92.140625 -0.78125 91.359375 0 89.796875 0 L 76.921875 0 C 75.359375 0 74.578125 -0.78125 74.578125 -2.34375 L 74.578125 -28.09375 C 74.578125 -31.800781 74.039062 -34.617188 72.96875 -36.546875 C 71.894531 -38.484375 69.78125 -39.453125 66.625 -39.453125 C 63.457031 -39.453125 61.160156 -38.484375 59.734375 -36.546875 C 58.316406 -34.617188 57.609375 -31.800781 57.609375 -28.09375 L 57.609375 -2.34375 C 57.609375 -0.78125 56.828125 0 55.265625 0 L 42.375 0 C 40.820312 0 40.046875 -0.78125 40.046875 -2.34375 L 40.046875 -28.09375 C 40.046875 -31.800781 39.46875 -34.617188 38.3125 -36.546875 C 37.164062 -38.484375 35.128906 -39.453125 32.203125 -39.453125 C 29.546875 -39.453125 27.457031 -38.582031 25.9375 -36.84375 C 24.414062 -35.113281 23.5 -32.742188 23.1875 -29.734375 L 23.1875 -2.34375 C 23.1875 -0.78125 22.40625 0 20.84375 0 L 7.96875 0 C 6.40625 0 5.625 -0.78125 5.625 -2.34375 L 5.625 -52.796875 C 11.90625 -51.515625 16.53125 -48.628906 19.5 -44.140625 C 22.03125 -47.109375 24.972656 -49.410156 28.328125 -51.046875 C 31.691406 -52.679688 35.085938 -53.5 38.515625 -53.5 C 40.429688 -53.5 42.351562 -53.273438 44.28125 -52.828125 C 46.21875 -52.378906 48.023438 -51.566406 49.703125 -50.390625 C 51.378906 -49.222656 52.765625 -47.550781 53.859375 -45.375 C 56.316406 -48.375 59.019531 -50.476562 61.96875 -51.6875 C 64.914062 -52.894531 68.335938 -53.5 72.234375 -53.5 Z M 72.234375 -53.5 "/></g></g></g><g fill="#000000" fill-opacity="1"><g transform="translate(92.292521, 109.588105)"><g><path d="M 33.25 -53.5 C 37.1875 -53.5 40.875 -52.914062 44.3125 -51.75 C 47.75 -50.582031 50.785156 -48.875 53.421875 -46.625 C 56.054688 -44.382812 58.113281 -41.613281 59.59375 -38.3125 C 61.070312 -35.019531 61.8125 -31.222656 61.8125 -26.921875 L 61.8125 -24.828125 C 61.8125 -23.265625 61.03125 -22.484375 59.46875 -22.484375 L 21.78125 -22.484375 C 22.007812 -18.929688 23.097656 -16.070312 25.046875 -13.90625 C 27.003906 -11.738281 29.625 -10.65625 32.90625 -10.65625 C 35.476562 -10.65625 37.601562 -11.179688 39.28125 -12.234375 C 40.957031 -13.285156 42.144531 -14.59375 42.84375 -16.15625 C 43.15625 -16.820312 43.503906 -17.316406 43.890625 -17.640625 C 44.285156 -17.972656 44.796875 -18.140625 45.421875 -18.140625 L 58.421875 -18.140625 C 59.242188 -18.140625 59.859375 -17.894531 60.265625 -17.40625 C 60.671875 -16.925781 60.71875 -16.273438 60.40625 -15.453125 C 59.039062 -11.546875 57.039062 -8.316406 54.40625 -5.765625 C 51.769531 -3.210938 48.65625 -1.300781 45.0625 -0.03125 C 41.476562 1.238281 37.539062 1.875 33.25 1.875 C 28.800781 1.875 24.734375 1.238281 21.046875 -0.03125 C 17.359375 -1.300781 14.1875 -3.132812 11.53125 -5.53125 C 8.875 -7.925781 6.8125 -10.832031 5.34375 -14.25 C 3.882812 -17.664062 3.15625 -21.5 3.15625 -25.75 C 3.15625 -29.96875 3.90625 -33.785156 5.40625 -37.203125 C 6.914062 -40.617188 9.015625 -43.535156 11.703125 -45.953125 C 14.398438 -48.367188 17.582031 -50.226562 21.25 -51.53125 C 24.914062 -52.84375 28.914062 -53.5 33.25 -53.5 Z M 22.015625 -31.96875 L 43.203125 -31.96875 C 43.046875 -34.769531 42.03125 -37.066406 40.15625 -38.859375 C 38.28125 -40.660156 35.785156 -41.5625 32.671875 -41.5625 C 29.429688 -41.5625 26.96875 -40.660156 25.28125 -38.859375 C 23.601562 -37.066406 22.515625 -34.769531 22.015625 -31.96875 Z M 22.015625 -31.96875 "/></g></g></g><g fill="#000000" fill-opacity="1"><g transform="translate(157.492332, 109.588105)"><g><path d="M 72.234375 -53.5 C 76.722656 -53.5 80.441406 -52.628906 83.390625 -50.890625 C 86.335938 -49.160156 88.53125 -46.820312 89.96875 -43.875 C 91.414062 -40.925781 92.140625 -37.617188 92.140625 -33.953125 L 92.140625 -2.34375 C 92.140625 -0.78125 91.359375 0 89.796875 0 L 76.921875 0 C 75.359375 0 74.578125 -0.78125 74.578125 -2.34375 L 74.578125 -28.09375 C 74.578125 -31.800781 74.039062 -34.617188 72.96875 -36.546875 C 71.894531 -38.484375 69.78125 -39.453125 66.625 -39.453125 C 63.457031 -39.453125 61.160156 -38.484375 59.734375 -36.546875 C 58.316406 -34.617188 57.609375 -31.800781 57.609375 -28.09375 L 57.609375 -2.34375 C 57.609375 -0.78125 56.828125 0 55.265625 0 L 42.375 0 C 40.820312 0 40.046875 -0.78125 40.046875 -2.34375 L 40.046875 -28.09375 C 40.046875 -31.800781 39.46875 -34.617188 38.3125 -36.546875 C 37.164062 -38.484375 35.128906 -39.453125 32.203125 -39.453125 C 29.546875 -39.453125 27.457031 -38.582031 25.9375 -36.84375 C 24.414062 -35.113281 23.5 -32.742188 23.1875 -29.734375 L 23.1875 -2.34375 C 23.1875 -0.78125 22.40625 0 20.84375 0 L 7.96875 0 C 6.40625 0 5.625 -0.78125 5.625 -2.34375 L 5.625 -52.796875 C 11.90625 -51.515625 16.53125 -48.628906 19.5 -44.140625 C 22.03125 -47.109375 24.972656 -49.410156 28.328125 -51.046875 C 31.691406 -52.679688 35.085938 -53.5 38.515625 -53.5 C 40.429688 -53.5 42.351562 -53.273438 44.28125 -52.828125 C 46.21875 -52.378906 48.023438 -51.566406 49.703125 -50.390625 C 51.378906 -49.222656 52.765625 -47.550781 53.859375 -45.375 C 56.316406 -48.375 59.019531 -50.476562 61.96875 -51.6875 C 64.914062 -52.894531 68.335938 -53.5 72.234375 -53.5 Z M 72.234375 -53.5 "/></g></g></g><g fill="#000000" fill-opacity="1"><g transform="translate(254.648242, 109.588105)"><g><path d="M 13.578125 -61.8125 C 11.429688 -61.8125 9.375 -62.160156 7.40625 -62.859375 C 5.4375 -63.566406 3.828125 -64.625 2.578125 -66.03125 C 1.328125 -67.4375 0.703125 -69.191406 0.703125 -71.296875 C 0.703125 -73.367188 1.328125 -75.109375 2.578125 -76.515625 C 3.828125 -77.921875 5.4375 -78.984375 7.40625 -79.703125 C 9.375 -80.421875 11.429688 -80.78125 13.578125 -80.78125 C 15.691406 -80.78125 17.734375 -80.421875 19.703125 -79.703125 C 21.671875 -78.984375 23.285156 -77.921875 24.546875 -76.515625 C 25.816406 -75.109375 26.453125 -73.367188 26.453125 -71.296875 C 26.453125 -69.191406 25.816406 -67.4375 24.546875 -66.03125 C 23.285156 -64.625 21.671875 -63.566406 19.703125 -62.859375 C 17.734375 -62.160156 15.691406 -61.8125 13.578125 -61.8125 Z M 20.84375 0 L 7.96875 0 C 6.40625 0 5.625 -0.78125 5.625 -2.34375 L 5.625 -52.796875 C 11.320312 -51.628906 15.671875 -49.140625 18.671875 -45.328125 C 21.679688 -41.523438 23.1875 -36.601562 23.1875 -30.5625 L 23.1875 -2.34375 C 23.1875 -0.78125 22.40625 0 20.84375 0 Z M 20.84375 0 "/></g></g></g></g></g></svg>