<?xml version="1.0" encoding="UTF-8"?>
<svg id="a" data-name="Layer 2" xmlns="http://www.w3.org/2000/svg" width="722.58" height="270.9" viewBox="0 0 722.58 270.9">
  <g id="b" data-name="Layer 1-2">
    <g>
      <g>
        <rect x="579.55" y="64.14" width="22.67" height="106.02"/>
        <path d="M591,9.51c-4.32,0-7.99,1.48-11.01,4.43s-4.54,6.52-4.54,10.69,1.51,7.7,4.54,10.58c3.02,2.88,6.69,4.32,11.01,4.32s7.99-1.44,11.01-4.32,4.53-6.4,4.53-10.58-1.55-7.74-4.64-10.69c-3.1-2.95-6.73-4.43-10.9-4.43Z"/>
        <polygon points="682.85 115.1 719.77 64.14 693.86 64.14 670.32 98.69 646.57 64.14 620.66 64.14 657.37 115.1 617.86 170.16 643.77 170.16 670.32 131.72 696.67 170.16 722.58 170.16 682.85 115.1"/>
        <path d="M282.67,69.94c0-3.07-1.02-6.55-2.46-8.19-19.86,0-37.87,23.13-49.74,54.45l7.98-37.87c2.46-11.05-.61-16.58-9.01-16.58-12.9,0-31.12,14.94-41.15,34.39l2.87,1.23c5.12-9.01,13.72-16.58,21.49-19.45l-12.08,56.3c-2.87,14.33-6.35,26.61-9.21,36.03h27.64l4.91-22.93c6.55-31.52,18.22-50.56,29.89-58.55,3.89-2.66,7.57-3.69,13.31-4.5,11.67-1.84,15.56-8.19,15.56-14.33Z"/>
        <path d="M373.88,80.59c0-10.44-10.65-18.83-28.45-18.83-37.05,0-69.81,37.05-69.81,72.88,0,23.95,15.35,39.1,38.08,39.1s46.68-15.76,59.78-48.52l-3.07-1.02c-11.05,23.75-27.63,35.42-41.97,35.42-16.38,0-26-9.1-26-28.96,0-1.84,0-3.48.21-5.32,48.52-4.3,71.24-29.39,71.24-44.74h0ZM341.13,67.89c6.55,0,11.26,3.69,11.26,10.03,0,12.69-18.22,38.39-49.34,43.92,3.28-26,20.27-53.95,38.08-53.95Z"/>
        <path d="M512.53,61.77c-7.49,0-14.36,1.51-20.62,4.53-6.26,3.02-11.34,7.06-15.22,12.09-3.17-5.18-7.49-9.25-12.96-12.2-5.47-2.95-11.88-4.43-19.22-4.43-6.34,0-12.09,1.08-17.27,3.24-5.18,2.16-9.65,5.18-13.39,9.07v-9.93h-21.16v106.02h22.67v-63.05c0-7.34,2.16-13.28,6.48-17.81s9.93-6.8,16.84-6.8,12.16,2.27,16.19,6.8c4.03,4.53,6.04,10.47,6.04,17.81v63.05h22.67v-64.13c0-6.76,2.16-12.38,6.48-16.84,4.32-4.46,9.93-6.69,16.84-6.69s12.13,2.23,16.08,6.69c3.96,4.46,5.94,10.44,5.94,17.92v63.05h22.89v-66.29c0-12.67-3.49-22.85-10.47-30.55s-16.59-11.55-28.82-11.55h0Z"/>
        <path d="M141.98,137.3c-4.25,13.09-12.85,24.46-23.96,32.94-6.27,5.12-13.92,9.55-23.19,12.19-7.64,2.52-15.72,3.89-23.89,3.89C31.76,186.32,0,154.54,0,115.36c0-5.59.65-10.97,1.87-16.14,6.75-31.14,31.59-49.58,58.25-52.99h.03c.67-.09,1.32-.19,1.97-.26,2.9-.34,5.83-.55,8.81-.55,8.09,0,15.87,1.61,23.12,4.39-7.15-7.22-14.17-16.57-19.06-28.35L96.41,0c1.01,26.14,11.77,51.74,30.64,67v27.83c-.14-.03-.27-.1-.41-.15-15.24-5.59-29.02-6.77-42.71-3.58-13.95,3.24-26.63,10.71-34.74,18.87l-2.81-1.2c9.68-17.52,20.76-29.53,42.57-37.79,4.88-1.85,10.35-3.02,16.3-3.63-8.47-5.14-20.02-8.98-35.75-8.98-.51,0-1.05.02-1.58.03-2.61.15-5.24.48-7.94,1.03-21.95,4.52-40.48,19.68-44.13,44.49-.31,2.43-.5,4.94-.5,7.58,0,29.89,24.23,54.14,54.14,54.14,24.05,0,44.41-15.65,51.48-37.33l20.99,9h.02Z"/>
      </g>
      <g>
        <path d="M243.8,237.16c1.78.89,3.15,2.13,4.13,3.74.97,1.6,1.46,3.43,1.46,5.49s-.49,3.89-1.46,5.49c-.98,1.6-2.35,2.86-4.13,3.76-1.78.91-3.82,1.36-6.12,1.36h-7.06v13.33h-5.54v-34.5h12.6c2.3,0,4.34.44,6.12,1.33h0ZM230.63,240.74v11.34h6.95c1.95,0,3.46-.51,4.52-1.54s1.59-2.4,1.59-4.1-.53-3.08-1.59-4.13-2.57-1.57-4.52-1.57h-6.95Z"/>
        <path d="M277.25,270.33l-9.83-13.33h-6.32v13.33h-5.54v-34.5h12.6c2.3,0,4.34.44,6.12,1.33s3.15,2.13,4.13,3.74c.97,1.6,1.46,3.43,1.46,5.49,0,2.26-.59,4.25-1.78,5.96s-2.81,2.96-4.86,3.76l10.35,14.22h-6.33ZM261.1,252.09h6.95c1.92,0,3.42-.52,4.5-1.57s1.62-2.4,1.62-4.08-.54-3.08-1.62-4.13-2.58-1.57-4.5-1.57h-6.95v11.34h0Z"/>
        <path d="M311.22,235.83v4.97h-17.14v8.83h12.91v4.81h-12.91v10.92h17.77v4.97h-23.31v-34.5h22.68Z"/>
        <path d="M323.82,235.83v29.53h15.79v4.97h-21.33v-34.5h5.54,0Z"/>
        <path d="M369.5,237.61c2.79,1.57,4.99,3.71,6.61,6.43s2.43,5.73,2.43,9.04-.81,6.32-2.43,9.04-3.82,4.86-6.61,6.43c-2.79,1.57-5.82,2.35-9.09,2.35s-6.35-.78-9.12-2.35-4.96-3.71-6.56-6.43-2.41-5.73-2.41-9.04.81-6.33,2.43-9.04,3.81-4.86,6.56-6.43c2.75-1.57,5.78-2.35,9.09-2.35s6.31.78,9.09,2.35h.01ZM354.08,241.97c-1.88,1.1-3.35,2.61-4.42,4.55-1.06,1.93-1.59,4.1-1.59,6.51s.53,4.63,1.59,6.59c1.06,1.95,2.54,3.48,4.42,4.57s4.01,1.65,6.38,1.65,4.44-.55,6.32-1.65,3.36-2.62,4.44-4.57c1.08-1.95,1.62-4.15,1.62-6.59s-.54-4.53-1.62-6.48-2.56-3.48-4.44-4.57-3.99-1.65-6.32-1.65-4.5.55-6.38,1.65h0Z"/>
        <path d="M407.03,235.83h6.22l-15.21,35.07h-1.88l-15.21-35.07h6.22l9.93,23.99,9.93-23.99h0Z"/>
        <path d="M441.42,235.83v4.97h-17.14v8.83h12.91v4.81h-12.91v10.92h17.77v4.97h-23.31v-34.5h22.68Z"/>
        <path d="M469.18,238c2.82,1.45,5.01,3.47,6.56,6.06s2.33,5.58,2.33,8.96-.78,6.32-2.33,8.94c-1.55,2.61-3.75,4.66-6.58,6.14-2.84,1.48-6.12,2.22-9.85,2.22h-10.82v-34.5h10.82c3.76,0,7.06.72,9.88,2.17h-.01ZM454.02,240.85v24.51h5.23c2.65,0,4.97-.52,6.95-1.57,1.99-1.05,3.51-2.51,4.57-4.39s1.59-4.01,1.59-6.38-.53-4.57-1.59-6.4c-1.06-1.83-2.58-3.25-4.55-4.26s-4.29-1.52-6.98-1.52h-5.23,0Z"/>
        <path d="M521.44,235.83v4.97h-16.62v10.3h13.69v5.02h-13.69v14.22h-5.54v-34.5h22.16Z"/>
        <path d="M546.69,270.33l-2.46-5.75h-15.52l-2.46,5.75h-5.91l15.21-35.07h1.88l15.21,35.07h-5.96.01ZM542.25,259.82l-5.75-14.27-5.8,14.27h11.55Z"/>
        <path d="M574.86,236.95c1.95,1.13,3.47,2.62,4.55,4.47l-3.87,2.98c-.91-1.36-1.98-2.4-3.21-3.11-1.24-.71-2.59-1.07-4.05-1.07s-2.7.36-3.71,1.07-1.52,1.75-1.52,3.11c0,.84.19,1.53.58,2.09.38.56.89,1.02,1.52,1.38s1.53.85,2.72,1.44l3.87,1.78c2.79,1.29,4.86,2.68,6.22,4.18s2.04,3.38,2.04,5.65c0,1.99-.5,3.74-1.49,5.25s-2.37,2.68-4.13,3.5-3.74,1.23-5.93,1.23c-2.82,0-5.37-.66-7.63-1.99-2.27-1.32-4.06-3.15-5.38-5.49l3.92-2.98c1.15,1.67,2.45,3.01,3.89,4s3.16,1.49,5.15,1.49c1.78,0,3.21-.44,4.31-1.31s1.65-2.04,1.65-3.5c0-1.22-.39-2.18-1.18-2.88-.78-.7-2.08-1.46-3.89-2.3l-3.82-1.78c-2.54-1.15-4.52-2.47-5.93-3.97s-2.12-3.36-2.12-5.59c0-1.85.49-3.48,1.46-4.91s2.29-2.53,3.95-3.29,3.48-1.15,5.46-1.15c2.44,0,4.63.57,6.59,1.7h-.02Z"/>
        <path d="M615.53,235.83v34.5h-5.54v-15.79h-17.35v15.79h-5.54v-34.5h5.54v13.75h17.35v-13.75h5.54Z"/>
        <path d="M629.8,235.83v34.5h-5.54v-34.5h5.54Z"/>
        <path d="M663.56,237.61c2.79,1.57,4.99,3.71,6.61,6.43s2.43,5.73,2.43,9.04-.81,6.32-2.43,9.04-3.82,4.86-6.61,6.43-5.82,2.35-9.09,2.35-6.35-.78-9.12-2.35-4.96-3.71-6.56-6.43-2.41-5.73-2.41-9.04.81-6.33,2.43-9.04,3.81-4.86,6.56-6.43c2.75-1.57,5.78-2.35,9.09-2.35s6.31.78,9.09,2.35h0ZM648.14,241.97c-1.88,1.1-3.35,2.61-4.42,4.55-1.06,1.93-1.59,4.1-1.59,6.51s.53,4.63,1.59,6.59c1.06,1.95,2.54,3.48,4.42,4.57s4.01,1.65,6.38,1.65,4.44-.55,6.32-1.65,3.36-2.62,4.44-4.57,1.62-4.15,1.62-6.59-.54-4.53-1.62-6.48-2.56-3.48-4.44-4.57-3.99-1.65-6.32-1.65-4.5.55-6.38,1.65h0Z"/>
        <path d="M702.13,235.83h5.54v35.07h-1.88l-21.01-23.94v23.36h-5.54v-35.07h1.93l20.96,23.83v-23.26h0Z"/>
      </g>
    </g>
  </g>
</svg>